{"title":"Maze.Runner-The.Scorch.Trials.2015.HD-TS.XVID.AC3.HQ.Hive-CM8","uid":12483194,"size":1946168129,"categoryP":"video","categoryS":"movies","magnet":"?xt=urn:btih:bc9ab58a86beccd429b7411cd24c72642084a873&amp;dn=Maze.Runner-The.Scorch.Trials.2015.HD-TS.XVID.AC3.HQ.Hive-CM8&amp;tr=udp%3A%2F%2Ftracker.leechers-paradise.org%3A6969&amp;tr=udp%3A%2F%2Fzer0day.ch%3A1337&amp;tr=udp%3A%2F%2Fopen.demonii.com%3A1337&amp;tr=udp%3A%2F%2Ftracker.coppersurfer.tk%3A6969&amp;tr=udp%3A%2F%2Fexodus.desync.com%3A6969","seeders":1,"leechers":0,"uploader":".BONE.","files":4,"time":1443081872,"description":"Video: 720x400 @bitrate 1800 2pass\r\nAudio: English Direct Line AC3 2.0 Stereo\r\nSample: yes included\r\n\r\n\r\nGeneral\r\nComplete name : Maze.Runner-The.Scorch.Trials.2015.HD-TS.XVID.AC3.HQ.Hive-CM8.avi\r\nFormat : AVI\r\nFormat/Info : Audio Video Interleave\r\nFile size : 1.79 GiB\r\nDuration : 2h 3mn\r\nOverall bit rate : 2 068 Kbps\r\nWriting application : Nandub v1.0rc2\r\nWriting library : Nandub build 1853/release\r\n\r\nVideo\r\nID : 0\r\nFormat : MPEG-4 Visual\r\nFormat profile : Advanced   \r\nFormat settings, BVOP : 2\r\nFormat settings, QPel : Yes\r\nFormat settings, GMC : No warppoints\r\nFormat settings, Matrix : Default (H.263)\r\nMuxing mode : Packed bitstream\r\nCodec ID : XVID\r\nCodec ID/Hint : XviD\r\nDuration : 2h 3mn\r\nBit rate : 1 800 Kbps\r\nWidth : 720 pixels\r\nHeight : 400 pixels\r\nDisplay aspect ratio : 16:9\r\nFrame rate : 29.970 fps\r\nColor space : YUV\r\nChroma subsampling : 4:2:0\r\nBit depth : 8 bits\r\nScan type : Progressive\r\nCompression mode : Lossy\r\nBits/(Pixel*Frame) : 0.209\r\nStream size : 1.56 GiB (87%)\r\nWriting library : XviD 1.2.1 (UTC 2008-12-04)\r\n\r\nAudio\r\nID : 1\r\nFormat : AC-3\r\nFormat/Info : Audio Coding 3\r\nMode extension : CM (complete main)\r\nFormat settings, Endianness : Big\r\nCodec ID : 2000\r\nDuration : 2h 3mn\r\nBit rate mode : Constant\r\nBit rate : 256 Kbps\r\nChannel(s) : 2 channels\r\nChannel positions : Front: L R\r\nSampling rate : 48.0 KHz\r\nBit depth : 16 bits\r\nCompression mode : Lossy\r\nStream size : 227 MiB (12%)\r\nAlignment : Split accross interleaves\r\nInterleave, duration : 33 ms (1.00 video frame)\r\nInterleave, preload duration : 500 ms\r\n\r\nThx Hive\r\n\r\nCM8 Doing It Right The First Time\r\n\r\nSources:\r\n\r\nVideo: 720p Private SourceCam thx xoxo\r\n\r\nAudio: Sweet Direct Line Big Thx to S4NDM4N\r\nthx\r\n\r\nNotes:\r\n\r\nfirst off this is not the russian or the latin source thats on the net for days, this one is good and new\r\nthe old source is dark,pixelated and had low bitrate and was done from either a 400 or 800mb file, no wonder it wasnt good.\r\ni have worked on that old source too for days to tidy it up, pity though spent so much hours on it and now its wasted, anyhow\r\n\r\nluckily the new one i got today beats it by far. its brighter,sharper,colours are nicer and its not zoomed in, so left and right side is a lot more to see.\r\nthe whole video itself is great.\r\n\r\nEncode:\r\n\r\nFixed perspective,rgb and removed some flicker and noise in the video and added some brightness and sharpness\r\n\r\nAudio was very nice line lipsynced to my video\r\n\r\nRating i would say is Video 8.5 and Audio a def 10\r\n\r\ngot very nice and will do me till retail\r\nenjoy\r\n\r\nTitle: Maze Runner: The Scorch Trials\r\nYear: 2015\r\nRated: PG-13\r\nReleased: 18 Sep 2015\r\nGenre: Action, Sci-Fi, Thriller \nhttp://www.imdb.com/title/tt4046784/\r\n\r\ncast\r\nDirector: Wes Ball\r\nWriter: T.S. Nowlin (screenplay), James Dashner (novel)\r\nActors: Dylan O'Brien, Kaya Scodelario, Thomas Brodie-Sangster, Nathalie Emmanuel\r\n\r\nplot\r\nIn this next chapter of the epic &quot;Maze Runner&quot; saga, Thomas (Dylan O'Brien) and his fellow Gladers face their greatest challenge yet: searching for clues about the mysterious and powerful organization known as WCKD. Their journey takes them to the Scorch, a desolate landscape filled with unimaginable obstacles. Teaming up with resistance fighters, the Gladers take on WCKD's vastly superior forces and uncover its shocking plans for them all.\r\n \nhttps://lookpic.com/O/i2/1851/TEWFHgmf.png \nhttps://lookpic.com/O/i2/1649/MJNWH814.png \nhttps://lookpic.com/O/i2/1501/ut05bg6m.png","torrent":{"xt":"urn:btih:bc9ab58a86beccd429b7411cd24c72642084a873","amp;dn":"Maze.Runner-The.Scorch.Trials.2015.HD-TS.XVID.AC3.HQ.Hive-CM8","amp;tr":["udp%3A%2F%2Ftracker.leechers-paradise.org%3A6969","udp%3A%2F%2Fzer0day.ch%3A1337","udp%3A%2F%2Fopen.demonii.com%3A1337","udp%3A%2F%2Ftracker.coppersurfer.tk%3A6969","udp%3A%2F%2Fexodus.desync.com%3A6969"],"infoHash":"bc9ab58a86beccd429b7411cd24c72642084a873","infoHashBuffer":{"type":"Buffer","data":[188,154,181,138,134,190,204,212,41,183,65,28,210,76,114,100,32,132,168,115]},"announce":[],"urlList":[]}}